<mxfile host="app.diagrams.net" agent="Mozilla/5.0 (Windows NT 6.3; Win64; x64) AppleWebKit/537.36 (KHTML, like Gecko) Chrome/109.0.0.0 Safari/537.36 Edg/109.0.1518.140" version="26.0.5">
  <diagram name="Page-1" id="KV63CPAmSzIUgklVUNLq">
    <mxGraphModel dx="830" dy="484" grid="1" gridSize="10" guides="1" tooltips="1" connect="1" arrows="1" fold="1" page="1" pageScale="1" pageWidth="850" pageHeight="1100" math="0" shadow="0">
      <root>
        <mxCell id="0" />
        <mxCell id="1" parent="0" />
        <mxCell id="Y0TWXEHwKEnQU0Hb2yYc-1" value="" style="rounded=0;whiteSpace=wrap;html=1;" vertex="1" parent="1">
          <mxGeometry x="30" y="40" width="590" height="360" as="geometry" />
        </mxCell>
        <mxCell id="Y0TWXEHwKEnQU0Hb2yYc-2" value="" style="outlineConnect=0;dashed=0;verticalLabelPosition=bottom;verticalAlign=top;align=center;html=1;shape=mxgraph.aws3.cloud_2;fillColor=#F58534;gradientColor=none;" vertex="1" parent="1">
          <mxGeometry x="15.25" y="29.999999999999996" width="60" height="50" as="geometry" />
        </mxCell>
        <mxCell id="Y0TWXEHwKEnQU0Hb2yYc-3" value="" style="outlineConnect=0;dashed=0;verticalLabelPosition=bottom;verticalAlign=top;align=center;html=1;shape=mxgraph.aws3.lambda;fillColor=#F58534;gradientColor=none;" vertex="1" parent="1">
          <mxGeometry x="325" y="201" width="50" height="66.5" as="geometry" />
        </mxCell>
        <mxCell id="Y0TWXEHwKEnQU0Hb2yYc-4" value="" style="sketch=0;points=[[0,0,0],[0.25,0,0],[0.5,0,0],[0.75,0,0],[1,0,0],[0,1,0],[0.25,1,0],[0.5,1,0],[0.75,1,0],[1,1,0],[0,0.25,0],[0,0.5,0],[0,0.75,0],[1,0.25,0],[1,0.5,0],[1,0.75,0]];outlineConnect=0;fontColor=#232F3E;fillColor=#E7157B;strokeColor=#ffffff;dashed=0;verticalLabelPosition=bottom;verticalAlign=top;align=center;html=1;fontSize=12;fontStyle=0;aspect=fixed;shape=mxgraph.aws4.resourceIcon;resIcon=mxgraph.aws4.sns;" vertex="1" parent="1">
          <mxGeometry x="500" y="201" width="61.5" height="61.5" as="geometry" />
        </mxCell>
        <mxCell id="Y0TWXEHwKEnQU0Hb2yYc-5" value="" style="sketch=0;points=[[0,0,0],[0.25,0,0],[0.5,0,0],[0.75,0,0],[1,0,0],[0,1,0],[0.25,1,0],[0.5,1,0],[0.75,1,0],[1,1,0],[0,0.25,0],[0,0.5,0],[0,0.75,0],[1,0.25,0],[1,0.5,0],[1,0.75,0]];outlineConnect=0;fontColor=#232F3E;fillColor=#E7157B;strokeColor=#ffffff;dashed=0;verticalLabelPosition=bottom;verticalAlign=top;align=center;html=1;fontSize=12;fontStyle=0;aspect=fixed;shape=mxgraph.aws4.resourceIcon;resIcon=mxgraph.aws4.eventbridge;" vertex="1" parent="1">
          <mxGeometry x="75.25" y="204.25" width="64.75" height="64.75" as="geometry" />
        </mxCell>
        <mxCell id="Y0TWXEHwKEnQU0Hb2yYc-6" value="" style="aspect=fixed;sketch=0;html=1;dashed=0;whitespace=wrap;verticalLabelPosition=bottom;verticalAlign=top;fillColor=#2875E2;strokeColor=#ffffff;points=[[0.005,0.63,0],[0.1,0.2,0],[0.9,0.2,0],[0.5,0,0],[0.995,0.63,0],[0.72,0.99,0],[0.5,1,0],[0.28,0.99,0]];shape=mxgraph.kubernetes.icon2;kubernetesLabel=1;prIcon=api" vertex="1" parent="1">
          <mxGeometry x="315" y="40" width="60" height="57.6" as="geometry" />
        </mxCell>
        <mxCell id="Y0TWXEHwKEnQU0Hb2yYc-7" value="" style="sketch=0;outlineConnect=0;fontColor=#232F3E;gradientColor=none;fillColor=#DD344C;strokeColor=none;dashed=0;verticalLabelPosition=bottom;verticalAlign=top;align=center;html=1;fontSize=12;fontStyle=0;aspect=fixed;shape=mxgraph.aws4.email;" vertex="1" parent="1">
          <mxGeometry x="690" y="195.25" width="78" height="69" as="geometry" />
        </mxCell>
        <mxCell id="Y0TWXEHwKEnQU0Hb2yYc-8" value="" style="html=1;shadow=0;dashed=0;align=center;verticalAlign=middle;shape=mxgraph.arrows2.arrow;dy=0.67;dx=20;notch=0;" vertex="1" parent="1">
          <mxGeometry x="570" y="204.25" width="100" height="60" as="geometry" />
        </mxCell>
        <mxCell id="Y0TWXEHwKEnQU0Hb2yYc-12" value="AWS SNS" style="text;strokeColor=none;align=center;fillColor=none;html=1;verticalAlign=middle;whiteSpace=wrap;rounded=0;" vertex="1" parent="1">
          <mxGeometry x="500" y="270" width="60" height="30" as="geometry" />
        </mxCell>
        <mxCell id="Y0TWXEHwKEnQU0Hb2yYc-13" value="AWS Lambda" style="text;strokeColor=none;align=center;fillColor=none;html=1;verticalAlign=middle;whiteSpace=wrap;rounded=0;" vertex="1" parent="1">
          <mxGeometry x="305" y="270" width="90" height="30" as="geometry" />
        </mxCell>
        <mxCell id="Y0TWXEHwKEnQU0Hb2yYc-14" value="AWS EventBridge&amp;nbsp;" style="text;strokeColor=none;align=center;fillColor=none;html=1;verticalAlign=middle;whiteSpace=wrap;rounded=0;" vertex="1" parent="1">
          <mxGeometry x="42.629999999999995" y="280" width="130" height="30" as="geometry" />
        </mxCell>
        <mxCell id="Y0TWXEHwKEnQU0Hb2yYc-15" value="Balldontlie API" style="text;strokeColor=none;align=center;fillColor=none;html=1;verticalAlign=middle;whiteSpace=wrap;rounded=0;" vertex="1" parent="1">
          <mxGeometry x="300" y="97.6" width="100" height="30" as="geometry" />
        </mxCell>
        <mxCell id="Y0TWXEHwKEnQU0Hb2yYc-16" value="Get Mail Noti Games Day" style="text;strokeColor=none;align=center;fillColor=none;html=1;verticalAlign=middle;whiteSpace=wrap;rounded=0;" vertex="1" parent="1">
          <mxGeometry x="670" y="267.5" width="140" height="30" as="geometry" />
        </mxCell>
        <mxCell id="Y0TWXEHwKEnQU0Hb2yYc-18" value="" style="edgeStyle=none;orthogonalLoop=1;jettySize=auto;html=1;rounded=0;" edge="1" parent="1">
          <mxGeometry width="80" relative="1" as="geometry">
            <mxPoint x="350" y="180" as="sourcePoint" />
            <mxPoint x="350" y="130" as="targetPoint" />
            <Array as="points" />
          </mxGeometry>
        </mxCell>
        <mxCell id="Y0TWXEHwKEnQU0Hb2yYc-23" value="" style="edgeStyle=none;orthogonalLoop=1;jettySize=auto;html=1;rounded=0;" edge="1" parent="1">
          <mxGeometry width="80" relative="1" as="geometry">
            <mxPoint x="350" y="150" as="sourcePoint" />
            <mxPoint x="350" y="190" as="targetPoint" />
            <Array as="points" />
          </mxGeometry>
        </mxCell>
        <mxCell id="Y0TWXEHwKEnQU0Hb2yYc-25" value="Request" style="text;strokeColor=none;align=center;fillColor=none;html=1;verticalAlign=middle;whiteSpace=wrap;rounded=0;" vertex="1" parent="1">
          <mxGeometry x="375" y="147.5" width="40" height="22.5" as="geometry" />
        </mxCell>
        <mxCell id="Y0TWXEHwKEnQU0Hb2yYc-26" value="Respond" style="text;strokeColor=none;align=center;fillColor=none;html=1;verticalAlign=middle;whiteSpace=wrap;rounded=0;" vertex="1" parent="1">
          <mxGeometry x="280" y="143.75" width="60" height="30" as="geometry" />
        </mxCell>
        <mxCell id="Y0TWXEHwKEnQU0Hb2yYc-33" value="" style="edgeStyle=none;orthogonalLoop=1;jettySize=auto;html=1;rounded=0;" edge="1" parent="1">
          <mxGeometry width="80" relative="1" as="geometry">
            <mxPoint x="401.5" y="234.75" as="sourcePoint" />
            <mxPoint x="481.5" y="234.75" as="targetPoint" />
            <Array as="points" />
          </mxGeometry>
        </mxCell>
        <mxCell id="Y0TWXEHwKEnQU0Hb2yYc-35" value="" style="edgeStyle=none;orthogonalLoop=1;jettySize=auto;html=1;rounded=0;" edge="1" parent="1">
          <mxGeometry width="80" relative="1" as="geometry">
            <mxPoint x="260" y="237.13" as="sourcePoint" />
            <mxPoint x="320" y="237.38" as="targetPoint" />
            <Array as="points">
              <mxPoint x="260" y="237.13" />
            </Array>
          </mxGeometry>
        </mxCell>
        <mxCell id="Y0TWXEHwKEnQU0Hb2yYc-36" value="" style="sketch=0;outlineConnect=0;fontColor=#232F3E;gradientColor=none;fillColor=#E7157B;strokeColor=none;dashed=0;verticalLabelPosition=bottom;verticalAlign=top;align=center;html=1;fontSize=12;fontStyle=0;aspect=fixed;pointerEvents=1;shape=mxgraph.aws4.eventbridge_scheduler;" vertex="1" parent="1">
          <mxGeometry x="200" y="217.5" width="45" height="45" as="geometry" />
        </mxCell>
        <mxCell id="Y0TWXEHwKEnQU0Hb2yYc-38" value="Schedule Rule" style="text;strokeColor=none;align=center;fillColor=none;html=1;verticalAlign=middle;whiteSpace=wrap;rounded=0;" vertex="1" parent="1">
          <mxGeometry x="167.5" y="270" width="110" as="geometry" />
        </mxCell>
        <mxCell id="Y0TWXEHwKEnQU0Hb2yYc-39" value="" style="edgeStyle=none;orthogonalLoop=1;jettySize=auto;html=1;rounded=0;" edge="1" parent="1">
          <mxGeometry width="80" relative="1" as="geometry">
            <mxPoint x="140" y="247.13" as="sourcePoint" />
            <mxPoint x="200" y="247.38" as="targetPoint" />
            <Array as="points">
              <mxPoint x="140" y="247.13" />
            </Array>
          </mxGeometry>
        </mxCell>
      </root>
    </mxGraphModel>
  </diagram>
</mxfile>
